HIERARCHY
ROOT joint_Root
{
	OFFSET 0.0 0.0 0.0
	CHANNELS 6 Xposition Yposition Zposition Zrotation Xrotation Yrotation 
	JOINT Hips
	{
		OFFSET -17.1583 93.1646 452.98
		CHANNELS 6 Xposition Yposition Zposition Zrotation Xrotation Yrotation 
		JOINT Spine
		{
			OFFSET 15.7357 0.0 0.0
			CHANNELS 6 Xposition Yposition Zposition Zrotation Xrotation Yrotation 
			JOINT Chest
			{
				OFFSET 8.98455 -0.406207 0.0
				CHANNELS 6 Xposition Yposition Zposition Zrotation Xrotation Yrotation 
				JOINT Neck
				{
					OFFSET 16.3773 0.0 0.0
					CHANNELS 6 Xposition Yposition Zposition Zrotation Xrotation Yrotation 
					JOINT Head
					{
						OFFSET 6.45672 0.0 0.0
						CHANNELS 6 Xposition Yposition Zposition Zrotation Xrotation Yrotation 
						End Site
						{
							OFFSET 0.0 0.0 0.0
						}
					}
				}
				JOINT Shoulder_L
				{
					OFFSET 12.9942 -0.242716 4.98039
					CHANNELS 6 Xposition Yposition Zposition Zrotation Xrotation Yrotation 
					JOINT UpperArm_L
					{
						OFFSET 5.34809 0.0 0.0
						CHANNELS 6 Xposition Yposition Zposition Zrotation Xrotation Yrotation 
						JOINT LowerArm_L
						{
							OFFSET 24.3286 1.87007e-05 0.0
							CHANNELS 6 Xposition Yposition Zposition Zrotation Xrotation Yrotation 
							JOINT Hand_L
							{
								OFFSET 22.2916 0.0 0.0
								CHANNELS 6 Xposition Yposition Zposition Zrotation Xrotation Yrotation 
								End Site
								{
									OFFSET 0.0 0.0 0.0
								}
							}
						}
					}
				}
				JOINT Shoulder_R
				{
					OFFSET 12.9945 -0.242716 -4.98039
					CHANNELS 6 Xposition Yposition Zposition Zrotation Xrotation Yrotation 
					JOINT UpperArm_R
					{
						OFFSET -5.34813 0.0 0.0
						CHANNELS 6 Xposition Yposition Zposition Zrotation Xrotation Yrotation 
						JOINT LowerArm_R
						{
							OFFSET -24.3289 0.000322201 0.0
							CHANNELS 6 Xposition Yposition Zposition Zrotation Xrotation Yrotation 
							JOINT Hand_R
							{
								OFFSET -22.2915 -0.000108084 0.0
								CHANNELS 6 Xposition Yposition Zposition Zrotation Xrotation Yrotation 
								End Site
								{
									OFFSET 0.0 0.0 0.0
								}
							}
						}
					}
				}
			}
		}
		JOINT UpperLeg_L
		{
			OFFSET -2.19248 -6.46944 0.0
			CHANNELS 6 Xposition Yposition Zposition Zrotation Xrotation Yrotation 
			JOINT LowerLeg_L
			{
				OFFSET 39.0811 0.0 -1.23785e-05
				CHANNELS 6 Xposition Yposition Zposition Zrotation Xrotation Yrotation 
				JOINT Foot_L
				{
					OFFSET 40.9854 0.0 -1.26872e-05
					CHANNELS 6 Xposition Yposition Zposition Zrotation Xrotation Yrotation 
					JOINT Toes_L
					{
						OFFSET 11.7543 0.0 0.0
						CHANNELS 6 Xposition Yposition Zposition Zrotation Xrotation Yrotation 
						End Site
						{
							OFFSET 0.0 0.0 0.0
						}
					}
				}
			}
		}
		JOINT UpperLeg_R
		{
			OFFSET -2.19251 6.46944 0.0
			CHANNELS 6 Xposition Yposition Zposition Zrotation Xrotation Yrotation 
			JOINT LowerLeg_R
			{
				OFFSET -39.0811 -0.00228153 -0.0401928
				CHANNELS 6 Xposition Yposition Zposition Zrotation Xrotation Yrotation 
				JOINT Foot_R
				{
					OFFSET -40.9854 0.0 0.0
					CHANNELS 6 Xposition Yposition Zposition Zrotation Xrotation Yrotation 
					JOINT Toes_R
					{
						OFFSET -11.7543 0.0 0.0
						CHANNELS 6 Xposition Yposition Zposition Zrotation Xrotation Yrotation 
						End Site
						{
							OFFSET 0.0 0.0 0.0
						}
					}
				}
			}
		}
	}
}
MOTION
Frames:	4
Frame Time:	0.0333333
0.000000 0.000000 0.000000 0.000000 0.000000 -0.000000 -1.432020 90.538000 46.903100 -88.624200 -6.424480 177.063000 15.735700 0.000005 -0.000001 27.518500 85.091800 -25.558500 8.984550 -0.406207 -0.000000 -3.092060 -8.887570 3.686450 16.377300 -0.000001 -0.000001 -3.273920 2.849510 -2.459590 6.456720 -0.000001 -0.000000 0.891976 5.982090 -0.588643 12.994200 -0.242716 4.980390 -91.150000 4.085410 -74.263700 5.348090 -0.000007 -0.000001 -57.194400 12.490200 -28.597000 24.328600 0.000019 0.000005 28.914400 8.510110 -75.001900 22.291600 -0.000001 0.000005 11.513000 5.162600 3.640440 12.994500 -0.242716 -4.980390 89.695600 0.896307 -71.236500 -5.348130 -0.000001 -0.000004 -49.518400 -20.205500 30.443600 -24.328900 0.000322 -0.000009 0.247882 7.064000 -2.023330 -22.291500 -0.000108 -0.000004 17.524900 5.022120 6.796840 -2.192480 -6.469440 -0.000000 -173.097000 -10.477600 11.912900 39.081100 -0.000007 -0.000012 -0.011466 0.053104 12.183100 40.985400 -0.000006 -0.000013 -6.473240 31.849100 -62.303000 11.754300 -0.000000 0.000003 0.060214 -0.040598 -21.235200 -2.192510 6.469440 -0.000001 -175.206000 10.044100 151.098000 -39.081100 -0.002282 -0.040193 0.009563 -0.049508 7.159710 -40.985400 0.000008 0.000006 -6.620500 -2.752210 -63.434900 -11.754300 -0.000006 -0.000006 0.000707 0.154773 -10.296300
0.000000 0.000000 0.000000 0.000000 0.000000 -0.000000 -0.975874 89.530600 41.831900 -88.209100 -6.722030 176.471000 15.735700 0.000005 -0.000001 25.560900 85.228700 -23.353100 8.984550 -0.406207 -0.000000 -3.494340 -8.820780 4.153950 16.377300 -0.000001 -0.000001 -3.547460 2.873910 -2.598890 6.456720 -0.000001 -0.000000 0.817562 5.673660 -0.947170 12.994200 -0.242716 4.980390 -91.287900 4.601770 -74.347300 5.348090 -0.000007 -0.000001 -59.977700 10.469800 -28.204700 24.328600 0.000019 0.000005 28.823800 9.297390 -73.638600 22.291600 -0.000001 0.000005 12.208900 5.134950 4.299210 12.994500 -0.242716 -4.980390 89.518400 1.457010 -71.706000 -5.348130 -0.000001 -0.000004 -49.149300 -19.485900 29.676100 -24.328900 0.000322 -0.000009 0.116734 7.707790 -0.877765 -22.291500 -0.000108 -0.000004 24.333500 4.840450 10.506200 -2.192480 -6.469440 -0.000000 -171.247000 -10.397200 12.717800 39.081100 -0.000007 -0.000012 -0.013896 0.051739 15.033100 40.985400 -0.000006 -0.000013 -7.029680 33.205600 -60.917600 11.754300 -0.000000 0.000003 -0.034213 -0.236174 -26.263400 -2.192510 6.469440 -0.000001 -173.823000 9.828670 150.680000 -39.081100 -0.002282 -0.040193 0.014905 -0.084202 7.818980 -40.985400 0.000008 0.000006 -7.203940 -4.314390 -63.794900 -11.754300 -0.000006 -0.000006 0.000811 0.152673 -10.381600
0.000000 0.000000 0.000000 0.000000 0.000000 -0.000000 -0.366666 88.799000 36.508500 -86.760700 -6.366400 174.197000 15.735700 0.000005 -0.000001 15.640300 85.880100 -12.695400 8.984550 -0.406207 -0.000000 -5.354950 -8.261900 5.516570 16.377300 -0.000001 -0.000001 -3.593260 2.877160 -2.974180 6.456720 -0.000001 -0.000000 0.605515 5.349090 -1.486420 12.994200 -0.242716 4.980390 -91.722000 5.942940 -73.809100 5.348090 -0.000007 -0.000001 -63.293400 9.551590 -25.660500 24.328600 0.000019 0.000005 28.155500 10.289500 -71.543100 22.291600 -0.000001 0.000005 13.803400 5.104990 4.995550 12.994500 -0.242716 -4.980390 89.431600 1.730610 -71.815800 -5.348130 -0.000001 -0.000004 -49.884800 -18.488600 28.208100 -24.328900 0.000322 -0.000009 0.229320 9.207260 -1.439010 -22.291500 -0.000108 -0.000004 27.255900 4.719710 12.801700 -2.192480 -6.469440 -0.000000 -168.990000 -10.536500 11.363800 39.081100 -0.000007 -0.000012 0.008384 -0.025619 18.122100 40.985400 -0.000006 -0.000013 -8.516410 33.512800 -56.779200 11.754300 -0.000000 0.000003 -0.080598 -0.393624 -32.921600 -2.192510 6.469440 -0.000001 -172.097000 6.687760 145.259000 -39.081100 -0.002282 -0.040193 0.013321 -0.032900 16.897900 -40.985400 0.000008 0.000006 -2.483600 -6.483090 -58.333800 -11.754300 -0.000006 -0.000006 0.002030 0.119826 -11.714100
0.000000 0.000000 0.000000 0.000000 0.000000 -0.000000 0.146356 88.148400 30.714600 -85.319700 -6.301880 173.036000 15.735700 0.000005 -0.000001 6.316740 86.380600 -2.732220 8.984550 -0.406207 -0.000000 -6.753590 -7.634210 6.737730 16.377300 -0.000001 -0.000001 -3.726210 2.753110 -3.120490 6.456720 -0.000001 -0.000000 0.549818 4.914750 -1.995180 12.994200 -0.242716 4.980390 -92.178700 7.280170 -73.289600 5.348090 -0.000007 -0.000001 -67.090900 9.085370 -21.442500 24.328600 0.000019 0.000005 27.200700 11.795000 -68.310700 22.291600 -0.000001 0.000005 15.797500 5.097170 5.179390 12.994500 -0.242716 -4.980390 89.269200 2.199930 -71.618600 -5.348130 -0.000001 -0.000004 -51.067500 -17.480400 26.037900 -24.328900 0.000322 -0.000009 0.254674 8.437880 -1.742290 -22.291500 -0.000108 -0.000004 25.349600 4.856570 10.206900 -2.192480 -6.469440 -0.000000 -167.846000 -7.578830 9.695790 39.081100 -0.000007 -0.000012 0.048044 -0.114644 22.737200 40.985400 -0.000006 -0.000013 -9.961930 30.776500 -49.874300 11.754300 -0.000000 0.000003 -0.168531 -0.590090 -41.656700 -2.192510 6.469440 -0.000001 -170.976000 3.284160 141.216000 -39.081100 -0.002282 -0.040193 0.047149 -0.084594 27.395800 -40.985400 0.000008 0.000006 1.491110 -9.535140 -57.737400 -11.754300 -0.000006 -0.000006 0.000854 0.151797 -10.417100
